<?xml version="1.0" encoding="utf-8"?>
<!-- Generator: Adobe Illustrator 19.0.0, SVG Export Plug-In . SVG Version: 6.00 Build 0)  -->
<svg version="1.1" xmlns="http://www.w3.org/2000/svg" xmlns:xlink="http://www.w3.org/1999/xlink" x="0px" y="0px"
	 viewBox="0 0 1000 1000" style="enable-background:new 0 0 1000 1000;" xml:space="preserve">
<style type="text/css">
	.st0{
		fill:#F0555C;
		stroke:#19323c;
		stroke-width:1;
		animation: svg 0.6s linear;
		animation-fill-mode: forwards;
	}
	@keyframes svg {
		from {
			stroke-width:50;
		} 
		to {
			stroke-width:0;
		}
	}
</style>
<g id="Layer_1">
	<g id="XMLID_3_">
		<path id="XMLID_149_" class="st0" d="M73.5,550.1h0.2c0,0.5-0.2,0.6-0.7,0.5C73.3,550.3,73.5,550.1,73.5,550.1z M76.4,547.2h0.5
			l-0.2,0.5l-1.4,0.7h-0.4v-0.2L76.4,547.2z M77.3,546.5l0.9,0.7l-0.9,0.5l-0.2-0.7v-0.5H77.3z M78.9,545h1.6v1.6h-0.7v-0.5
			l-0.9,0.7l-0.9-0.9v-0.5L78.9,545z M274,547.9v-0.5l-0.5,0.5l-3.2-0.9c-2.1,1.4-4,2.1-5.6,2.3l-0.5-0.5c-4.1,0.3-6.9,0.8-8.6,1.4
			l-0.5-0.2c-0.9,0.3-2.1,0.7-3.7,1.1c-1.6,0.5-3,0.8-4.2,0.9l-0.2-0.5l-1.8,0.5l-0.4-0.5v0.5l-2.3,0.9l-0.2,0.2h-0.2v-0.5l-1.8,0.5
			v-0.2l-2,2l-0.7-0.2l-1.1,1.4l-7.4-0.5c-0.9,1.8-2.3,2.6-4.1,2.5c-0.8-0.4-2-1.7-3.6-3.6h-1.4l-2,2l-0.2,1.4l-0.9-0.2
			c-1.5-1.8-2.3-3.3-2.3-4.5c-0.3-0.1-0.8-0.2-1.6-0.2l-1.1-0.9l-2.7,0.4c-3.8-6.3-6.5-11.3-8.1-14.9c0.1-0.9-0.5-2.6-2-5
			c-1.7-2.4-2.6-4.4-2.7-5.9c-0.8,0-1.2-0.4-1.2-1.2c-0.1-0.8-0.2-1.6-0.4-2.3c-0.2-0.7-0.9-1.3-2.1-1.9l0.2-1.1l-2.3-3.2
			c0-0.9-0.3-1.7-0.8-2.5c-0.5-0.8-1.2-1.5-1.9-2.1c-0.8-0.7-1.4-1.4-2-2.1h0.2v-0.9l-0.7,0.2l-0.7-0.7l0.2-0.5
			c-0.6-0.7-1.7-2-3.2-3.6c-1.5-1.7-2.6-3.2-3.4-4.7l-2.5-1.4l-1.1,3.4l-1.4,0.9v1.6l0.5,1.6l-0.2,0.5l0.7,1.8l1.1-0.2l0.7,2.3h-0.5
			l0.2,0.9l-0.5,1.1l0.2,0.5l-0.2,1.8l-1.1,1.6c0.1,0.2,0.5,0.2,1.1,0.2c0.1,0.6,0.2,1.4,0.2,2.3c0,0.9,0.1,2,0.5,3.2l-0.5,0.7
			l-0.9-0.5l-0.9,2.9l1.6-0.2v0.2l-1.8,3.4l0.2,0.9l-0.2,1.4l0.9,3.8l-0.9,1.4c0.1,0.9,0.4,2.2,0.7,3.9c0.3,1.7,0.8,3.3,1.4,4.6
			l0.7-0.5l0.2,1.6l-0.4,0.5c0,1.2,0.2,2.5,0.7,3.8l-0.5,2.5l2.7,1.4v0.5l-1.1,1.1v0.7l0.7,1.1l-0.4,1.6c0,0.3,0,0.6-0.1,1
			c-0.1,0.4,0,0.7,0.1,1l-2.7,2.7h0.7c-0.2,1.8-1.2,2.7-3.2,2.7l0.2,0.7l-2.5,2.9l0.2,2.3l-1.1,1.4l-1.4-0.5l-1.4,0.5l0.2,2.3
			l-0.2,1.1c-2.4-0.2-5.6,1-9.5,3.4l-4.3,2.5l-0.2-0.2c-0.2,0-0.6,0.1-1.2,0.2c-0.7,0.1-1.1,0.1-1.2,0c-1.2,0.3-2.2,0.4-2.9,0.2
			l-1.6-0.2l-2.9,1.1c-1.1,0-2.4-0.2-4.2-0.7c-1.7-0.5-2.5-1.1-2.4-1.8l0.7-3.4l-1.8-2.3c0-3.5-0.5-5.6-1.4-6.5v-0.9l0.9-0.9
			l-1.1-1.8v-0.7l-1.4-2.7c-1.8-1.5-2.7-2.7-2.7-3.6c-0.8-0.3-1.8-1.3-3.2-2.9c0.6,0.5,2.2,1.4,4.7,2.9c1.8,0.9,3.2,1.7,4.1,2.3V560
			c-1.1-0.9-2.1-2.3-3.2-4.1h0.7l2,1.4c-0.9-1.2-1.7-2.6-2.5-4.1c-3.9-5.9-6.3-9.2-7.2-10.1l-2.9-3.8c-1.5-1.8-2.5-3.2-2.9-4.1
			l-0.7,0.2l0.5-0.9l-0.2-0.7l1.4-0.7c1.7,2.6,5.7,6.3,12.1,11.3c6.4,5,10.8,7.5,13.2,7.7c0.3-0.3,0.9-1,1.9-2c1-1,1.6-2.1,1.9-3.2
			l-0.4-0.5l0.4-1.6v-0.5l0.9-2.5c-0.2-1.2-0.2-2.3-0.2-3.4c0-1,0-1.8,0-2.3c0-0.7-0.1-1.4-0.2-1.8l0.2-0.2
			c-0.3-2.4-0.5-4.5-0.5-6.3c0-1.4,0-3,0.1-4.8c0.1-1.9,0-4.1-0.1-6.6h0.5l-0.5-0.5c0.1-0.9,0.3-2,0.5-3.3c0.1-1.3,0.2-2.7,0.2-4.4
			c0-0.9-0.2-2.1-0.4-3.6l0.2-0.2c0.1-0.9,0.2-2.1,0.2-3.6c0-1.5,0.1-2.6,0.2-3.4l-0.2-2.3c0-0.6,0.1-1.7,0.5-3.2v-3.2
			c0.3-0.3,0.3-0.6,0-0.9V487h-0.5l-1.6,2.5c-1.2-0.1-2.5,0.8-3.8,2.8c-1.4,2-2.2,3.3-2.5,3.7l-1.6,0.2v0.5l0.4-0.2v0.5l-0.9,1.1
			V497l-1.4,1.6l0.5,1.4l-1.8,2.9l-0.5-0.2c0,0.2,0.1,0.3,0.2,0.3c0.1,0.1,0.1,0.2,0,0.3l-2.7,3.2l-1.6-0.5l-1.1,1.1l0.2,0.5
			c0.1-0.1,0.3-0.3,0.5-0.3c0.1-0.1,0.2,0,0.2,0.1v0.5l-1.6,1.1l0.9,0.7c-0.8,1.4-1.5,2.3-2.1,2.8c-0.7,0.5-1.7,0.7-3,0.6
			c-0.3,0.6-1.1,1.4-2.4,2.3c-1.3,0.9-2.1,1.7-2.6,2.5l0.5,1.1c-2.3,0.6-4.6,2.1-7,4.5c0.3,0.2,0.2,0.6-0.2,1.4l-0.7-0.5
			c-1.1,1.1-2.4,2.3-4.2,3.6c-1.7,1.4-3.1,2.6-4.2,3.6v-0.2l-0.2-0.2v0.5l0.2,0.5l2-0.9l-1.4,1.8l0.2,0.9h-1.4v-1.6
			c-2.1,1.4-3.8,2.3-5.2,2.7c0,0.2,0.1,0.3,0.2,0.3c0.1,0.1,0.2,0.2,0.2,0.3l-3.6,1.8l-0.9,1.1l-0.5-0.5l-1.6,0.9l-0.5-0.5
			c-2.3,0.6-4.4,1.9-6.5,3.8c-0.3,0.2-0.6,0-0.8-0.3c-0.2-0.4-0.4-0.5-0.6-0.3c-0.3,0.2-0.9,0.7-1.9,1.6c-1,0.9-1.5,1.1-1.5,0.7
			c0-0.1-0.1-0.2-0.3-0.2c-0.2,0-0.3,0.1-0.3,0.2h0.4l-2.5,0.9l-0.7-0.5l1.6-1.8l-0.5-0.9c0.5-0.1,1.1-0.3,1.9-0.6
			c0.8-0.2,1.5-0.5,1.9-0.8c-0.2,0-0.3-0.1-0.3-0.3c-0.1-0.2,0-0.5,0.1-0.8c1.5-1,2.8-1.7,3.8-1.8l-0.2-0.5l2.5-2.3l0.4,0.2
			c1.5-0.3,2.8-1.7,3.8-4.1c1.2-0.7,3.8-3.8,7.8-9.1c4-5.3,7.8-10.7,11.6-16.1l4.7-6.3V499l-2.5,2.7c-1.2,0.5-2.3,1.6-3.2,3.4
			c-1.1,0.2-2.1,0.5-3.3,1.1c-1.1,0.6-2,1.1-2.6,1.4l-3.6,0.2c-0.6-0.5-1.7-1.1-3.2-1.9c-1.5-0.8-2.6-1.5-3.4-2.1l-1.4-0.2v-0.2
			c0-1.2-1-2.1-2.9-2.7c-2.6-2.6-3.8-5.1-3.8-7.7c1.4-1.8,3.1-3.9,5.3-6.4c2.2-2.5,3.7-4,4.6-4.6c3-0.6,5.2-0.9,6.5-0.9l1.6,1.1
			l2.5-2l0.9,0.2c1.4-0.3,2.8-0.8,4.4-1.6c1.6-0.8,2.4-1.5,2.6-2.3c0.7,0,2.3-0.9,4.7-2.7c2.4-1.8,4.2-3.3,5.4-4.5l0.2-1.1l1.1,0.2
			c1.5-0.9,3.2-1.7,5.2-2.3l0.4-0.5l1.1,0.2c0.6-1.2,1.8-1.7,3.6-1.4l0.7-0.9l7.2,2.3l1.1-0.2l1.8,2.3l0.7-0.5l-0.5-2l0.7-2
			l-0.5-1.6l0.5-0.5l-0.5-1.1l0.5-1.1l-0.2-0.9l0.5-0.2l-0.5-1.8l0.5-0.9l-0.2-1.1l0.5-1.4l-0.5-2c-0.2-0.3-0.1-0.6,0.1-0.8
			c0.2-0.2,0.4-0.3,0.6-0.3l-0.7-1.8l0.7-0.7h-0.4v-1.4l-0.2-0.9c-1.8,1.7-4.7,3.8-8.6,6.5c-3.6,2.6-6,4.4-7.2,5.4l-1.6-0.2
			l-1.8-0.7c0,0.2-0.2,0.2-0.5,0.2c-0.3,0-0.4-0.1-0.4-0.2c-1.5,1.1-4.1,1.9-7.7,2.5c-2-1.7-3.2-4.1-3.6-7.4l0.2-0.4
			c-0.3-1-0.9-2.4-1.8-4.2c-0.9-1.7-1.5-3-1.8-3.9l0.5-0.7l-0.5-0.7l1.4-2.3l1.6-0.9l-0.2-0.7l3.8-4.3c0.4,0.5,0.8,0.6,1.1,0.5v-1.4
			l2-1.1l7.2-0.9l1.1,0.7l0.4-0.2l0.9,0.9l5.4-1.1c0.3-0.3,2-1.2,5.2-2.7c0.8-0.6,1.8-1.5,3.3-2.7c1.4-1.2,2.7-2.1,3.9-2.7
			c1.2-0.6,2.6-1,4.1-1.4c0-0.8,1.5-1.4,4.5-2c3-0.6,5-0.8,6.1-0.7v-0.2c0.9,0,1.4,0.2,1.6,0.7c2,0,3.5,0.3,4.7,0.9
			c1.5,0.2,3.2,1.3,5,3.4c1.4,0.2,3.3,1.2,5.9,3c2.6,1.9,3.8,3.4,3.6,4.6l1.6,4.1l-0.9,1.4l0.2,0.9c-1.1,0.9-2.4,2-4.2,3.4
			c-1.7,1.4-3.1,2.6-4.2,3.7c-1.1,1.1-1.7,2.3-2,3.5l0.4,0.5l-0.4,0.2l0.4,1.8c-2.3,5.6-3.4,10.2-3.4,14c0,0.9,0,2,0.1,3.3
			c0.1,1.3,0,2.7-0.1,4.4h0.2l1.4-0.7l-1.1,1.6c1.8-1.8,3.9-4.2,6.2-7.1c2.3-2.9,4.1-5.4,5.3-7.3v-0.5l-2.5-2.5l0.4-1.1l-0.9-0.9
			c-0.2-0.1-0.1-0.5,0.2-1.1h0.7l-0.4-0.7l0.4-1.1l0.7,0.7c0.9-0.9,2-2.3,3.2-4.1c-0.3,0.2-0.6,0.2-0.8,0c-0.2-0.1-0.1-0.3,0.3-0.5
			c0.8-0.3,1.9-1,3.5-2c1.6-1,3-1.6,4.4-1.6c0.1,0,0.3,0.1,0.3,0.2c0.1,0.2,0.2,0.2,0.3,0.2l1.4-1.6h1.8l3.4-1.1l0.9,0.5l2.3-0.5
			l2.3,0.2l1.4-0.7l0.7,0.5l2.7-0.5l9,3.6l0.9,2.7l-0.9,1.4l0.7-0.2c0,1.8-0.5,3.7-1.6,5.7c-1.1,2-1.8,3.6-2.3,4.6
			c-1.2,0.2-3.5,1.5-6.8,4.1c-3.3,2.6-5.6,4.5-6.8,5.9l-1.4-0.2l-0.7,0.5h0.4l-0.7,1.4c-0.2,0.2-0.3,0.1-0.5-0.1
			c-0.2-0.2-0.2-0.5,0-0.8l-0.9,0.9h0.7l-0.2,1.1l-0.9,0.7c-0.3-0.1-0.5-0.1-0.7,0c-0.2,0.2-0.2,0.3,0,0.5l-2.7-0.5v0.7l-0.4-0.2
			c-0.5,0.6-1.1,1.1-1.9,1.6c-0.8,0.4-1.5,1-2.1,1.6v0.7l-1.4-0.9v-0.2h0.4V474H194l-2,1.8v0.5l-0.2-0.2l-1.4,1.8l-4.3,0.7l-0.5,1.1
			c1.7,1.1,6.5,3.8,14.4,8.1c3.8,1.8,7.2,3.6,10.4,5.4v0.2l0.5-0.2c2.6,0.8,5,2.4,7.2,5c0.5,0.9,1.4,1.6,2.7,2c1.4,0.5,2,0.9,2,1.4
			l0.5-0.2c0.7,1.1,1.8,2,3,2.7c1.3,0.8,2.6,1.4,3.9,2c1.4,0.6,2.7,1.4,4.1,2.3c1.4,0.9,2.4,2,3.2,3.2c1.5,0.6,4.2,2,8.1,4.1
			l1.4,0.2c0,0.6,1,1.6,2.9,3c2,1.4,3.1,2.6,3.4,3.5c1.5,1.5,3.7,3.2,6.5,5l4.5,3.4l1.4,2l1.1-0.2l1.6,0.7l-0.5,1.4
			c0.8,0.9,2,1.5,3.8,1.8l-1.6,1.1v0.7c2,1.5,3.2,2.6,3.6,3.2c0.5,0.6,0.9,1.5,1.4,2.6c0.5,1.1,0.7,2,0.9,2.6L274,547.9z M84,542.5
			h-1.4v0.9l1.4-0.7V542.5z M98.7,504.8l-0.4,0.5l-1.4-0.5v-0.2L98.7,504.8z M105,534.1l1.1,0.5l-0.2,0.2c-0.2,0-0.4,0-0.7-0.1
			c-0.3-0.1-0.7,0-1.1,0.1L105,534.1z M110.2,531.2h0.5l-0.5,0.7l-0.7-0.2L110.2,531.2z M113.1,529.2l0.2,0.7l-0.7,0.2h-1.1
			C111.5,529.5,112.1,529.2,113.1,529.2z M114.2,528.7c0.9,0.9,1.4,1.6,1.6,2c-0.6-0.3-1.2-1-1.8-2H114.2z M114.9,528.3l0.9,0.7v0.5
			c-0.8-0.3-1.2-0.7-1.4-1.1H114.9z M116.3,531.2l0.7,0.7l-0.9-0.7H116.3z M126,517.2v0.2h-0.7l2.3-3.6h0.7v0.9L126,517.2z
			 M132.3,556.2c-0.5-0.3-0.7-0.6-0.7-0.9L132.3,556.2z M135.2,505.3l-0.2-0.5l-1.1,0.7l1.1,0.2L135.2,505.3z M138.8,410
			c-0.5-1.5-1.1-3-2-4.5c-0.2-0.5-0.6-1.5-1.4-3c-0.8-1.6-1.2-3-1.4-4.4l0.7-2.7c0.5-0.5,1.4-1.4,2.8-2.8c1.4-1.4,2.7-2.2,3.7-2.4
			v-0.7l1.4,0.5l1.8-0.5c0-0.3,0.1-0.4,0.4-0.3c0.3,0.1,0.5,0.3,0.7,0.6l1.6-0.7l1.1,1.1l0.2-0.4l0.9,0.4c1.8-0.1,3.6-0.7,5.5-1.6
			c1.9-0.9,3-1.4,3.5-1.6c1.7-0.8,3.4-1.5,5.2-2.1c1.8-0.7,3.5-1,5.2-1c2.3,0,4.1,0.3,5.6,0.8c1.5,0.5,2.6,1.6,3.4,3.3l-0.7,1.1
			c0.1,0.8,0.5,1.7,1,2.9c0.5,1.2,1.1,1.8,1.7,1.8c0.3,0.8,0.8,1.6,1.4,2.6c0.6,1,1,1.6,1.4,1.9c0.1,0.5,0.2,0.8,0.1,1
			c-0.1,0.2-0.1,0.4-0.1,0.6l0.2,0.9l-0.9,2.5l0.4,0.2c-0.2,1.7-2,3.6-5.4,5.7c-3.5,2.2-6.1,3.3-7.9,3.3c-0.3,0-0.8-0.1-1.4-0.4
			h-0.4l-2.5-0.9l-4.5,1.1l-1.6-0.2c-1.2,0.8-2.9,1.3-5,1.6c-1.2,0.8-2.7,1.5-4.4,2.1c-1.7,0.7-3.2,1.1-4.4,1.2l-2,1.1h-0.2l0.9-0.9
			v-0.4c-1.1,0-1.9-0.5-2.5-1.5c-0.6-1-1-2.1-1.1-3.3l-1.4-1.4L138.8,410z M139.2,499.4l-1.8,1.4l-1.6,0.7c1,0,1.5,0.2,1.4,0.5
			L139.2,499.4z M178.5,472.8h-0.7l-1.1,0.9h1.1L178.5,472.8z M180.7,450.5h1.1l-0.2,0.4C181,451,180.7,450.8,180.7,450.5z
			 M191.1,477.8h1.1v0.2l-1.4,0.5L191.1,477.8z M191.1,435.2V435l0.5-1.4h0.5l0.4,0.7C192.4,434.9,192,435.2,191.1,435.2z
			 M192.7,477.1v-0.9l1.1-0.5v0.7l-0.9,0.9L192.7,477.1z M275.3,537.7c-0.5-0.1-1.1-0.2-1.8-0.2l0.5-0.5h0.2l1.1,0.5V537.7z"/>
		<path id="XMLID_174_" class="st0" d="M403.8,516.3h0.9v0.2c-0.6,0.5-1.4,0.9-2.4,1.2c-1,0.4-1.7,0.6-2.1,0.8l-0.7,0.7
			c0.1,0.5,0.5,0.9,0.9,1.4l-0.2,2.3l0.5,0.5v2.3l0.9,1.8v0.9l0.2,2.9v0.9l0.2,3.4l-0.2,0.2l0.2,0.2c0.5,5.1-0.3,10.9-2.3,17.3
			l0.5,0.5c-0.9,2.4-1.4,4.4-1.4,5.9c0,0.6,0.1,1.4,0.5,2.3l-0.7,1.4l0.2,0.5c-0.8,2-2,4.2-3.8,6.8l-1.6,5.9
			c-1.1,0.5-1.8,0.9-2.4,1.4c-0.5,0.4-0.7,1.2-0.6,2.3l-0.5,0.2c-2.3,0-4.5-0.8-6.8-2.5l-4.1-5.6v-1.6l-2.9-2.7
			c-1.5-0.8-2.6-1.4-3.4-2c-0.8-0.6-1.2-1.4-1.4-2.5l-1.4-1.8c0.1-1.4,1-3.2,2.5-5.6l-0.5-1.6l0.5-1.1l-0.7-1.4
			c1-2.1,2-7.6,2.9-16.4c0.8-5.7,1.1-8.6,1.1-8.8l-0.2-1.1c0.5-0.7,0.7-1.9,0.7-3.5c0-1.6,0.1-2.7,0.4-3.5l-0.2-0.9l0.5-1.6
			l-0.5-0.7l0.7-4.3l-0.7-1.8l0.9-2.3l-1.4-1.6l1.1-1.1l-0.5-0.2c-0.2-0.9-0.4-2-0.7-3.3c-0.3-1.3-0.5-2.4-0.5-3.3l-2.9-1.1
			l-2.7,1.8h-0.5c0-0.1,0-0.4,0-0.8c0-0.4-0.2-0.4-0.5-0.1c-0.8,0.5-2.2,1.1-4.4,2c-2.2,0.9-3.2,1.7-3,2.5h-1.1v-0.5l-4.1,2l0.2,0.4
			l-0.2,1.6h-1.6l-1.8,1.1h-0.9v0.2h1.1v0.4l-0.9,0.5l-1.6-0.5v0.2l-1.8-0.2l-0.7,1.6v0.5l1.4-0.9h0.2c-2.4,1.5-4,2.9-4.7,4.3
			l-1.1-0.5l-2.3,1.8l-1.4-0.2l-0.9,0.9v-0.2l-0.9,1.4c-0.3,0.6-0.5,0.4-0.7-0.5c-0.2,0-0.3,0-0.3-0.1c-0.1-0.1-0.1,0-0.1,0.1
			l0.2,1.1l-1.1-1.1l-0.9,0.5v0.9l0.7-0.2c0.1,0.2,0.1,0.4-0.1,0.8c-0.2,0.4-0.5,0.6-0.8,0.6l-0.5-1.1h-0.7l-1.8,1.4h-0.7l-0.9,0.9
			h-1.1l-0.2-0.5l-1.4,0.7l-0.7-0.2v-0.5l-0.9,0.5h-1.6l-0.7,0.5l0.7,1.4v0.5l-1.8,0.7c0.3,0,0.5,0.2,0.7,0.5
			c0.1,0.3,0.1,0.5-0.2,0.5c-0.3,0-0.4-0.1-0.4-0.5c0-0.3-0.1-0.5-0.2-0.5l-0.7,0.7l-1.4,0.2l-0.2-0.2l1.8-2l-1.4,1.1l-1.6-0.2
			l-2.3,1.6L317,524l-1.1-0.4l-0.7,1.1h-0.5l0.7-1.6c0.3,0.2,0.6,0.1,0.9-0.1c0.3-0.2,0.3-0.4,0-0.6c2.1-1,3.5-1.9,4.3-2.5l0.9-0.5
			l-0.5-0.7l1.4-1.1c0.4-0.3,0.8-0.1,1.1,0.5c2.1-2.4,3.8-3.6,5.2-3.6l5.2-3.8c0.1-0.1,0.3-0.1,0.5,0.1c0.1,0.2,0.2,0.4,0.2,0.6
			l1.6-2.7c2.1-0.3,9.8-7.9,23.2-22.8l6.1-6.5l-0.2-0.7l2-5l-1.6-2.5l0.7-0.7c-0.3-2.6-0.9-4.4-1.8-5.4l3.2-2.5v-0.5l1.4,0.2
			l2.5-0.7h0.5l1.1-0.2h3.8c5.3-5,7.8-9.1,7.7-12.4l1.8-2.7v-1.1l-2.9-0.4l-4.3,2.7c-2.6,1.5-7.6,4.8-15.2,9.8
			c-7.6,5-11.4,7.9-11.4,8.4h-0.9c-0.8,0.8-2.2,1.7-4.3,2.9v0.2l1.1,1.8l-0.9,1.4c-1.1,0.2-2.3,0.6-3.7,1.2
			c-1.4,0.7-2.1,1.4-2.1,2.1c-0.8,0.5-1.6,0.9-2.5,1.4c-0.9,0.5-1.6,0.9-2,1.4h-0.9l-0.2-1.1l-2.7,0.9c-0.2-0.1-0.4-0.2-0.7-0.2
			c-0.3,0-0.5,0.1-0.7,0.2l-2.9-0.4c0-2.3-1.7-3.5-5-3.8v-0.9l-2.9-2l-0.9,0.5c-0.3-0.7-1.3-1.2-2.9-1.5c-1.7-0.2-3-0.5-4.2-0.9
			c-1.1-0.4-1.7-1-1.7-1.9l-2.7-2c-0.2-0.1-0.2-0.3-0.1-0.3c0.1-0.1,0.1-0.2,0.1-0.3l-1.8-3.6l-1.1-0.5v-0.9v-0.9
			c0-2,0.6-3.1,1.8-3.4l0.7-0.7v-1.8c0.8-1.5,1.2-2.9,1.4-4.1l0.5-0.2h1.1l0.5,0.4c0.9-0.1,2.2-0.4,3.8-0.7c1.7-0.3,3.1-0.5,4.3-0.5
			l4.5-2.5l2,0.2l0.5-0.4c1.7,0.3,3.8-0.2,6.3-1.6c2.6-1.4,4.9-2.9,7-4.5l1.8,0.9l0.5-0.2l1.6,2c3.8-0.8,12.7-5,26.8-12.6l9.2-4.7
			c0.7-1.5,1.4-2.5,2-2.9c0.6-0.5,1.7-0.6,3.4-0.5l1.1-0.5h0.9l3.4-2.3l0.2-0.9l1.8,0.5l0.9-0.7h1.4l2.9-1.8l0.9,0.5l0.7-1.1
			l1.6-0.2l2.5-2l2.7,0.2l3.6-2.5c0.5-0.8,2.5-2.2,6.1-4.4c3.6-2.2,6.5-3.9,8.8-5.1l5.9,0.2l0.9-1.4c2.1,1.1,3.6,1.7,4.5,1.9
			c0.9,0.2,2.4,0.3,4.5,0.1c0.9,0.8,2.2,1.8,3.9,3.3c1.7,1.4,3.3,2.5,4.6,3.3c0.3,2.1,1.1,3.8,2.5,5.2c0.3,0.6,0.8,1.7,1.6,3.2
			c0.7,1.5,1.6,2.7,2.5,3.7c0.9,1,2,1.6,3.4,1.9l0.9,2.3v1.4l0.9,0.9l-0.5,1.1l0.5,0.9h-0.5l0.7,0.7c-1.4,1.5-2,3.5-2,6.1
			c-0.5,0.5-1.4,0.9-2.7,1.4c-1.4,0.5-2.3,0.9-2.7,1.4h-2.9l0.7,0.9l0.2,0.5c-0.3,0.6-1.1,1.4-2.5,2.5c-1.4,1.1-2.1,1.8-2.3,2.3
			l-1.1,1.1l-3.2-1.4l-3.4,0.2c-0.2-0.1-0.3-0.2-0.6-0.1c-0.2,0.1-0.4,0.1-0.6,0.1l-0.7-0.2l-2,1.6c-0.2-0.4-0.7-0.7-1.6-0.7
			l-0.5,0.7l-1.8,0.2l-0.9-0.9c-5.1,1.8-8.9,4.4-11.3,7.7c-1.5,0.6-2.8,1.5-3.9,2.8c-1.1,1.3-1.9,2.1-2.4,2.6
			c-0.3,1.1-1.4,2.1-3.2,3.2c0.1,2.3-3.5,7.4-10.8,15.3l-0.7,2.3l0.7,0.7c-0.8,4.5-1.6,13.1-2.5,25.9l0.2,0.7
			c0.1-0.1,0.3-0.4,0.6-0.7c0.2-0.3,0.4-0.4,0.6-0.2c-0.5,1.7-0.6,2.7-0.5,3.2l0.9-3.2h0.5c0.1,1.4,0.2,2.8,0.1,4.4
			c-0.1,1.6,0,3,0.1,4.4l0.5,0.5l1.6-0.5v0.2l1.6-0.7v0.5l-1.6,0.5c0.6,0,0.7,0.2,0.5,0.7l-1.1,0.2c0.1-0.3,0.1-0.5-0.1-0.7
			c-0.2-0.1-0.5-0.1-0.8,0c-0.3,0.2-0.5,0.5-0.5,0.9v0.5l0.5-0.5v2L403.8,516.3z M333.3,517.9h1.1l-0.7,0.7h-0.2L333.3,517.9z
			 M338.4,514.3h-1.1v0.5h0.7L338.4,514.3z M340.9,512.3c-0.8,0-1.1,0.2-1.1,0.5v0.5h0.2l0.7-0.2L340.9,512.3z M343.2,511.4
			l-0.9,0.2l-1.1,1.1h1.4L343.2,511.4z M345.5,474.8c-0.4,0.2-0.7,0.5-1,0.8l-0.2-0.9l2.3-0.9v0.2
			C346.2,474.3,345.9,474.5,345.5,474.8z M352.4,505.7h-0.9l-0.5,0.9l-0.2-0.2v0.2l0.4,0.2l1.1-0.7V505.7z M354.2,505.5l-0.9-0.2
			l-0.7,0.7l1.6-0.2V505.5z M355.6,506.6l0.5,0.7l-1.1,0.7l0.5-1.4H355.6z M357.8,506.2v0.5h0.5l-0.5,0.9l-1.1-1.1l1.6-1.4h0.5
			l0.9,0.7L357.8,506.2z M363,503.3l2.5-1.8v0.5l-1.8,1.4v0.2l-1.6,0.2V503h0.2L363,503.3z M397.5,514.5H397c0,0.4-0.2,0.8-0.7,1.1
			h0.7l0.5-0.5V514.5z M398.2,508.2l-0.7,0.2v2.7h0.2C397.7,509.7,397.8,508.7,398.2,508.2z M398.6,487c1.2-1.8,2-3.2,2.3-4.3h0.5
			v1.1l-2.7,3.4V487z M401.3,481.9h-0.7c0-0.9,0.2-1.4,0.7-1.6V481.9z M476.1,502.1c0,0-0.4,0.2-1.1,0.4c-0.8,0.3-1.1,0.7-0.9,1.1
			l0.2,0.5c0,1.7-1.3,3.2-3.8,4.5c-0.2,0.2-0.2,0.3,0,0.6c0.1,0.2-0.1,0.3-0.7,0.3h-0.5c-1.2,0-2.7,0.3-4.6,0.9
			c-1.9,0.6-3.3,1.3-4.2,2H459c-1.5,0-2.6,0.2-3.2,0.7h-3.6v0.5l-0.7-0.2l-2.5,1.4h-0.2l-0.9-1.6l-2,0.5l-0.7-0.9l-2,0.2
			c-0.2,0.6,0.1,1.3,0.7,2H443l-0.2-1.1h-0.9l-0.5,0.7c-0.2,0.2-0.3,0.2-0.6,0.2s-0.4-0.1-0.6-0.2c0-0.1-0.1-0.3-0.3-0.3
			c-0.2-0.1-0.4,0-0.6,0.1l-0.9-0.5l0.2-0.4v-0.2c-0.6,0-0.9,0.2-0.9,0.7h0.5l-1.1,0.9l-1.4-0.7v0.2l0.7,1.1l-2,1.4l-0.5-1.1
			c0-0.3,0.1-0.6,0.2-0.8c0.1-0.2-0.1-0.5-0.7-0.8l-2.3,0.7l-0.7-1.1l-0.9,0.7l-0.7-0.5c-0.5,0.5-1,1.4-1.6,2.9h-0.7l-0.2-1.4
			l-2.7,2.3h0.2l0.2,1.1l-3.8-1.1l-0.5-0.9l-2,0.2v0.9l-0.9-0.9l-2.7,0.7v-1.1l-1.8,0.7l-0.5-1.4l0.2-0.2l0.5,0.2l-0.2-0.5l-0.7-0.9
			l-1.1,1.1h-2.3v0.9l0.9-0.2l1.4,0.2v0.9l-3.4,0.7l-0.9-0.5l1.1-0.9c0.1,0.2,0.3,0.2,0.5,0.1c0.1-0.1,0.2-0.3,0.2-0.6l-0.9-0.5
			l0.2,0.7l-2,0.2l-0.9-0.5l1.6-0.9l-0.7-0.5l-1.1,0.5v-0.2l-0.2-0.7h0.7l0.2-0.5l-0.7,0.2c-0.2-0.1-0.2-0.4-0.1-0.7
			c0.1-0.3,0.2-0.5,0.3-0.5c0.1,0,0.4,0,0.7,0.1c0.3,0.1,0.6,0,0.9-0.1h-1.4l-0.5-0.2v-0.9c0.1,0,0.3,0.1,0.3,0.3
			c0.1,0.2,0.2,0.3,0.3,0.1l2.5-3.2c5.6-2.3,10.9-6.2,16-11.7l-0.9-0.5l-0.2,0.2l-1.6-0.7l-0.5,0.2c-0.8-0.1-1.7-0.1-2.8,0
			c-1.1,0.2-2.1,0.2-2.8,0.2c-1.5,0-2.7-0.4-3.6-1.1l-1.8,0.7l-0.5-0.5v0.5c-0.2,0.2-0.2,0-0.2-0.3c0-0.4-0.1-0.5-0.2-0.3l-2.3,1.1
			h-0.7l-1.1-0.7v-0.5l2-0.9c0.5-0.5,0.3-0.7-0.5-0.8c-0.8-0.1-1-0.3-0.7-0.6c1-0.3,2.6-1.1,4.7-2.5c-0.9,0-1.8,0.1-2.7,0.3
			c-0.9,0.2-1.7,0.3-2.5,0.3c-0.5-0.3-0.5-0.5-0.1-0.5c0.4,0,0.6-0.1,0.8-0.2c0-0.3-0.3-0.4-0.9-0.2c1.2-0.8,2.8-1.4,4.7-2l-0.5-0.5
			l-0.9,0.2v-0.2l-3.2,0.9l-0.2-0.5l3.2-1.4v0.2l4.7-3.6l3.6-1.6h-0.5c-0.3,0-0.8,0.2-1.4,0.5v-0.5l-2.5,1.1c2-1.4,4.5-2.7,7.7-4.1
			c3.2-1.4,5.7-2,7.7-1.8l0.5-0.7l0.7,0.2l5-1.6c0.8,0.2,2,0.2,3.8,0c1.8-0.1,3.2-0.1,4.1,0c0.3-0.1,0.7-0.2,1.1-0.1
			c0.5,0.1,0.8,0,0.9-0.1c1.2,0.5,2.6,0.8,4.3,1c1.7,0.2,2.8,0.4,3.4,0.6c0.6,0.4,1.4,0.8,2.4,1c1,0.2,1.8,0.5,2.4,0.8l0.9-0.2
			c1,0.9,2.3,1.5,3.6,1.8c1.4,0.3,2.2,0.5,2.5,0.5c2.1,0.5,3.8,0.9,5.2,1.5c1.4,0.5,2.8,1.5,4.3,2.8l-0.2,0.5
			c0.3,1.1,0.6,2.4,0.9,3.9c0.3,1.6,0.6,2.9,0.9,3.9c0.7,0.2,1.4,1.3,2,3.4c0.6,2.1,0.9,3.7,0.9,4.7
			C476.3,502.1,476.1,502.1,476.1,502.1z M418.4,509.1c0,0-0.6-0.1-1.8-0.5l-0.4,0.5l-3.8,0.9v-0.9c0.8-0.1,2-0.9,3.6-2.3
			c-1.7,0-2.8,0.6-3.4,1.8l-1.4-0.2l-0.9,1.1v-0.2l-0.2-0.2v0.7l0.7,1.1l-0.7,0.7l-2.7,0.2l-0.9,0.7l0.5,1.1l-0.2,0.2l1.6,0.2
			l1.6-0.7c0.3,0.3,0.1,0.6-0.7,0.9l1.6-0.2c-0.4-0.1-0.6-0.3-0.4-0.5l2.9-1.4l0.9,0.9l-0.4-2.5l0.2,0.5l4.1-1.8
			C418.3,509.2,418.4,509.1,418.4,509.1z M407.2,514.8l-0.5-0.2h-0.2v0.7h0.2L407.2,514.8z M411.4,510.5h0.9l-0.5,0.7L411.4,510.5z
			 M414.6,514.5l-0.9-0.5h-0.2v0.2l0.7,1.1l0.5-0.7V514.5z M416.6,514.5l-0.4-0.2l-0.9,0.2v0.7l1.4-0.5V514.5z M416.6,506.2
			l-0.4,0.5C416.2,506.6,416.3,506.5,416.6,506.2z M417.6,506.5c0.4-0.1,0.6-0.3,0.8-0.6h-0.7l-0.9,0.9
			C417,506.7,417.3,506.6,417.6,506.5z M465.8,510.7l0.7,0.2l-1.1,0.2L465.8,510.7z"/>
		<path id="XMLID_199_" class="st0" d="M705.3,538.9c0,0,0,0.4,0,1.1c0,1.4,0.5,2.5,1.6,3.4v0.9l-1.8,0.5l-0.7,1.6l-0.7-0.2l0.5,1.4
			l-1.4,1.1l-1.6-0.2l-0.7,1.6c-0.2,0.2-0.1,0.2,0.1,0.2c0.2,0,0.3,0.1,0.3,0.2c-0.3,0.3-0.8,0.9-1.5,1.9c-0.7,1-1.4,1.8-2.3,2.4
			c-0.8,0.6-1.6,0.9-2.4,0.9l-0.9-0.2l-3.4,2.3c-1.7,0-3.6,0.2-5.9,0.7s-4,0.8-5.2,0.9c-2.1-0.3-4.8-0.9-8.1-1.7
			c-3.3-0.8-5.3-1.5-6.1-1.9l0.2,1.1c-0.2,0.2-0.3,0.1-0.3-0.1c-0.1-0.2-0.2-0.3-0.3-0.3l-0.5,0.5c-0.9-1-1.5-1.9-1.8-2.5h-1.4
			c-1.8-0.3-3.1-0.7-3.8-1.1c-0.3,0.3-1.2,0.4-2.6,0.3c-1.4-0.1-2.2-0.1-2.4-0.1l-2.9-1.1c-0.2,0.3-0.4,0.3-0.7,0
			c-0.3-0.3-0.5-0.5-0.7-0.5h-0.5l0.5,0.5l-0.7,0.5l-1.1-0.2l-0.2,0.2l-2.9-0.5c-0.3-0.3,0.1-0.7,1.1-1.1c-1.1-0.3-1.4-0.6-1.1-0.9
			h2.9l0.2,0.5l1.4-1.1l1.8,0.9l1.4-0.5v-0.7l-1.4-0.7c-0.2,0.5-0.6,0.7-1.5,0.7c-0.8,0-1.3-0.2-1.5-0.7l0.9-0.7l1.4,0.5v-0.5
			l-1.1-0.5h-0.5l-0.9-0.7l-1.1,1.1c-0.2,0.2-0.7,0-1.6-0.5h-1.4c-0.8,0-2.3,0.2-4.7,0.5l-0.5-0.2l-2.3,0.7l-1.6-0.5l-0.7,0.7
			l-1.8-0.2l-1.8,0.7l-0.7-0.5l-4.1,1.4l-1.1-0.2l-5,2.3l-2.5-0.2c-2.1,0.8-4.3,1.3-6.5,1.6l-0.9-0.2c-1.7,0.8-3.8,1.1-6.3,1.1
			c-0.5,0.2-1.2,0.3-2.3,0.3c-1.1,0.1-1.9,0.3-2.5,0.8c-0.3-0.1-0.6-0.2-1-0.1c-0.4,0.1-0.6,0.1-0.8,0.1v-0.2l-4.3,0.9l-0.9-0.5
			l-7.7,2.5l-0.2-0.4c-1.1,0.6-3.3,1.3-6.8,2l-0.5-0.5c-6.5,2-13.1,4.2-19.8,6.8c-3.9,3.9-6.5,5.9-7.9,5.9c-1.7,0-4.4-1.1-8.1-3.4
			c-3.8-2.3-6.2-3.7-7.2-4.3c-0.5-0.8-1.1-1.9-2-3.4c-0.9-1.5-1.6-2.9-2-4.1l2-3.2h0.2c-0.2-0.3-0.2-0.8-0.2-1.6
			c0-1,0.2-2.5,0.7-4.3h0.9l4.3-2.5l1.6,0.5l1.6-1.4l-0.2-0.9l2.5,0.2v-0.5h1.4l0.2-1.1l-0.2-0.7l2.3,0.2c0.8-0.8,1.8-1.6,3.3-2.6
			c1.4-1,2.6-1.9,3.4-2.8c0.8-0.9,1.2-1.9,1.2-2.9l-0.2-0.5l0.2-1.4l-1.4-1.4c-0.2-0.1-0.1-0.3,0.1-0.3c0.2-0.1,0.3-0.2,0.3-0.3
			c-0.3-0.6-0.6-1.4-0.8-2.4c-0.2-1-0.3-1.7-0.3-2.1v-0.2l1.1-1.6l-0.7-1.6l0.7-0.9l-2.5-0.9l0.2-2.3l-2-2.7h-0.2l1.1-1.8l-0.9-2
			l0.4-0.9l-0.4-0.2l0.4-0.5L548,508l0.7-0.7c-0.6-0.3-0.8-0.7-0.5-1.1l1.6-1.1l-0.5-1.4l0.5-0.4h3.4l0.5,0.4
			c0.3-0.6,0.7-1.2,1.4-1.8c0.6-0.6,1.2-1,1.8-1.1c0.3-0.8,0.8-1.5,1.6-2.4c0.8-0.8,1.2-1.4,1.4-1.7c0.6-2,1.7-2.9,3.2-2.9v-0.5
			l3.4,0.7l2.7-0.5c0.1,0.2,0.4,0.2,0.8,0.1c0.4-0.1,0.6-0.2,0.8-0.3c4.1,0,6.5,1.1,7.4,3.4c0,2,2,5.6,6.1,10.8v0.5
			c0,0.2-0.1,0.3-0.3,0.3c-0.2,0.1-0.3,0.2-0.3,0.3l0.7,0.7c-0.2,1.2-0.5,2.6-0.9,4.1c-0.5,1.5-0.8,2.7-0.9,3.6l0.2,0.7l-0.2,2.9
			l0.7,1.1l-0.5,2.5h-0.2l-0.4-0.2v0.2l0.7,0.5c0,0.8-0.2,1.6-0.5,2.6c-0.3,1-0.6,1.8-0.9,2.6l0.2,0.5l-0.9,2.7l0.9,2.5l-1.6,0.5
			l0.9,0.9c0.6,0,1.6-0.1,2.9-0.5c1.4-0.3,2.5-0.5,3.4-0.5l0.5,0.2c0.6-0.1,1.9-0.6,3.9-1.2c2-0.7,3.9-1,5.7-1
			c0.1-0.1,0.3-0.4,0.6-0.7c0.2-0.3,0.2-0.5-0.1-0.7l0.7-1.8c-0.6-0.1-0.7-0.5-0.3-0.9c0.4-0.5,0.6-0.7,0.6-0.9l-0.7-1.6l0.9-2
			l-0.2-0.9l1.1-1.4l-0.2-1.4l0.2-1.4l0.7-1.4l-0.7-0.7l1.4-0.9l0.5-0.9l-1.1-3.2c0.6-2,1.2-5,1.8-9.2l-0.5-0.5l0.5-1.1h-0.5
			l0.5-1.8l-0.5-1.4c0.3-2.4,0.6-4.3,0.9-5.6c-0.3,0-0.4-0.2-0.3-0.7c0.1-0.5,0.2-0.8,0.3-0.9l-0.9-2.7l0.5-1.4l-0.5-0.2
			c0.3-0.6,0.5-1.3,0.7-2.1c0.1-0.8,0.2-1.4,0.2-1.7l-0.5-0.7h0.5l-0.5-0.5l0.5-1.6c-0.8-4.4-1.1-9.6-1.1-15.8l-0.5-0.5
			c0.3-0.9,0.5-1.7,0.5-2.3c0-0.9-0.2-2.4-0.5-4.5l0.5-0.5c-0.5-1.2-0.8-2.8-1-4.8c-0.2-2-0.3-3.8-0.1-5.3c-0.3-1.8-0.9-3.5-1.8-5
			l0.9-0.9c-1.1-1.8-1.7-3.1-2-3.8l0.2-0.5c-0.6-1.4-1.4-2.4-2.3-3.2v-0.5c0-0.6,0.2-1.4,0.7-2.3l-0.5-0.7l1.8-0.9v-0.5
			c0-0.6,0.2-1.6,0.7-2.9l1.4-0.2v0.2c0.8-0.5,1.5-1,2.1-1.6c0.7-0.6,1.4-1.2,2.1-1.8l1.6-0.2l3.2,0.9l3.4-1.4c0-1.2,1.2-2,3.6-2.4
			c2.4-0.4,3.8-0.6,4.3-0.8c0.1,0.2,0.4,0.2,0.7,0.1c0.3-0.1,0.5-0.2,0.7-0.3c1.7,0,3.4,0.3,5.3,0.9c1.9,0.6,2.8,1.6,2.8,2.9
			c0.6,0.6,1.7,2.3,3.3,5.2c1.6,2.9,2.4,4.6,2.6,5.2c-0.2,0.3-0.2,0.6-0.1,1c0.1,0.4,0.1,0.6,0.1,0.8c0,0.2,0,0.3-0.1,0.6
			c-0.1,0.2,0,0.5,0.1,0.8c-0.3,1.5-0.9,3.7-1.8,6.6c-0.9,2.9-1.4,5.5-1.4,7.8v1.4l0.7,0.7l-0.9,1.6l0.2,0.9l-0.9,0.9l0.9,2.7
			l-0.9,2.5l0.9,0.7l-0.2,1.4l0.9,0.9l-0.9,0.9l0.9,1.8l-0.7,2.9h0.7c1,0,2.2-0.3,3.4-1c1.2-0.7,2.1-1.5,2.7-2.6
			c1.4,0,2.4-1,3.2-3.2l1.8,0.7l2.7-1.1l2,0.7l2.7-1.4l0.7,0.5l2.5-0.9l2.5,0.5l0.7-0.5v0.5l0.2-0.5c0.9,0.2,2,0.7,3.3,1.7
			c1.3,1,1.9,1.9,1.9,2.8h-0.2c0,0.2,0,0.3,0.1,0.5c0.1,0.2,0,0.3-0.1,0.5c0.6,1.5,1,3.2,1.4,5.2c0.7,1.2,1.4,2.6,1.8,4.1
			c2.1,1.7,3.3,2.9,3.6,3.8H669c0,2.4,0.1,4,0.5,4.7l-2.9,2l-0.4,1.1l0.2,1.1c-1.2,1.1-3.5,2.2-6.8,3.4l-1.1-0.7
			c-0.6,0.6-1.5,1-2.7,1.1c-1.2,0.2-2.1,0.4-2.7,0.7h-5.2v-0.2l-0.5,0.2h-1.1v0.2l-0.9-0.2l-1.8,0.2l-0.2,0.5l-3.2-1.1l1.4-0.2
			l0.2,0.2l0.2-0.5c0-0.1-0.2-0.5-0.7-0.9l-2.5,1.6h-1.1c-1.5,0-2.3,0.5-2.3,1.4l-1.6,1.4c-1.1,0-1.9,0.5-2.6,1.5
			c-0.7,1-1.2,1.7-1.7,2.1v2.3l0.2,0.9v0.2l-0.2,0.2h0.2l0.7-0.7l0.5,0.7v2l-0.2,0.4l0.2,1.1c-0.5,1.5-0.7,3.2-0.7,5.2
			c0,0.8,0.1,2,0.5,3.8l-0.5,0.5l0.5,1.6l-0.5,0.2c0.6,1.4,0.6,2.6,0,3.6l1.4,3.4l-0.7,0.7l1.6,1.4h1.1l-0.2-1.4h0.2l-0.2-0.7
			c0.1,0,0.3,0.1,0.5,0.3c0.1,0.2,0.3,0.3,0.5,0.1l1.4-1.4l0.5,0.2l1.6-0.9l1.8,0.2c1.4-0.9,2.9-1.6,4.7-2l0.2-0.7l0.9,0.2l1.6-0.2
			l0.9-0.7l1.1,0.2l0.7-0.9l2.3,0.2l0.7-1.4h1.1c1.8,0,3.4-0.2,4.7-0.7l-0.5-0.7c1.2-0.3,2.3-0.5,3.2-0.5c1.2,0,2.7,0.2,4.5,0.5
			l1.6-0.9l2,0.7c0.1-0.1,0.3-0.2,0.6-0.2c0.2,0,0.4,0.1,0.6,0.2l1.1-0.2l0.5,0.2l3.2-1.1h1.1h1.8c2.3,0,3.7,0.3,4.3,0.9
			c0-0.1,0.3-0.2,0.9-0.1c0.6,0.1,1,0,1.4-0.1l1.6,1.6c0.9,0.6,2.1,1.3,3.7,2.1c1.6,0.8,2.6,1.8,3.2,2.8c0.5,1.1,1.2,3,1.9,5.9
			l-0.7,0.7c1.8,0.9,4.5,2.4,8.1,4.5c1.5,1.5,2.6,2.7,3.2,3.6C705.3,538.6,705.3,538.9,705.3,538.9z M536.3,543.8l-0.7,0.7l0.2-0.7
			H536.3z M597.6,426.9h-0.9c0-0.5,0.2-0.7,0.7-0.7h0.2V426.9z M636.6,550.4l1.1,0.7h-1.8l-0.2-0.7l0.2-0.7h0.2l0.5,0.4l-0.2,0.2
			H636.6z M640.2,549.9h-1.6v0.5l-1.4-0.9l0.7-0.2l0.9,0.5l1.8-0.2L640.2,549.9z M640.2,545.2l-0.7-0.5l-0.7,0.5H640.2z
			 M642.4,552.4c-0.5-0.4-1-0.5-1.6-0.2l-0.7-0.2v-0.5h0.5C641.8,551.5,642.4,551.8,642.4,552.4z M641.3,549.7h1.1
			c0,0.3-0.2,0.4-0.5,0.4h-0.7V549.7z M646.2,549l-0.7-0.5v-0.2l0.9,0.2v0.5H646.2z M647.8,494.5l0.9,0.2l-0.4,0.5h-0.5V494.5z"/>
		<path id="XMLID_210_" class="st0" d="M923.8,457.8c0,0,0.5,0.8,1.4,2.4c0.9,1.6,1.5,2.9,1.8,3.9c-0.6,2.3-2.2,3.4-4.7,3.4
			c-1.1,1.2-2.3,2.2-3.8,2.9c-1.5,0.8-2.9,1.1-4.3,1.1l-3.2,1.1l-1.1-0.5v0.5l-1.4-0.5l-2.9,1.6v-0.2l-0.5,0.2l-3.2-0.7l-0.9,0.4
			c-0.8-0.3-2-0.9-3.7-1.7c-1.7-0.8-3-1.5-3.7-1.9l-1.1,0.2L886,467c-2.7,0.9-6.6,1.8-11.8,2.6c-5.2,0.8-9.3,1.2-12.3,1.2l-4.3,1.4
			l-0.5-0.2c-1.1,0.5-2.5,1.2-4.4,2.3c-1.9,1.1-3.5,1.6-4.8,1.6c-0.2,0-0.4,0-0.9-0.1c-0.5-0.1-0.7,0.1-0.7,0.6
			c3.9,1.2,6.8,3.2,8.6,6.1h0.2l0.5,4.1c-0.2,0-0.3,0.1-0.3,0.3c-0.1,0.2,0,0.4,0.1,0.6l-0.9,3.2c0.1,0.3,0.2,0.8,0.2,1.6
			c0,0.8-0.3,2.6-0.9,5.6l0.2,1.1v2.3c0,2.3,0.1,3.5,0.5,3.6v2.9h0.2c0.9-1.7,1.5-3.4,1.8-5.2L856,501v-0.9l0.2-3.6l2-4.1L858,490
			l1.6-0.9l-0.7-0.7c1.5-2.4,2.3-4.4,2.3-6.1l0.7-0.7c0.3,0,0.8,0.1,1.4,0.3c0.6,0.2,1,0.4,1.4,0.6l0.2,0.7c2.6,0,5.6-1,9.2-3.2
			c0.5-0.1,1.4-0.6,2.9-1.4c1.5-0.8,3-1.2,4.5-1.4c0.1,0.2,0.5,0.2,0.9,0.1c0.5-0.1,0.7-0.2,0.7-0.3c1,0,2.1,0.6,3.2,1.8
			c1,1.2,2,2.4,2.9,3.7c0.9,1.3,1.5,2.1,1.8,2.6c1.5,2.4,2.5,3.8,2.9,4.3c2.3,0.5,3.8,1.4,4.5,2.7l1.6,0.2l0.2-0.2v0.5l1.4-0.5
			l3.2,2.9v1.4l-0.5,0.5c0.1,0.6,0.2,1.5,0.2,2.7c0,2-0.8,3.5-2.5,4.5l-1.4,3.2h-1.1c-0.9,0.8-1.9,1.8-2.9,3.3
			c-1.1,1.4-2,2.6-2.9,3.5h-1.1l-1.8,1.6l0.2,0.4l-2.7,2.7v0.7c-1.1,1.1-2.5,2-4.3,2.7c-1.8,0.8-3.3,1.7-4.5,2.9
			c-0.2,0.2-0.1,0.3,0.2,0.5c0.3,0.2,0.5,0.2,0.7,0.2l0.7-0.5l-0.7,1.4l-0.9-0.2l-1.1,0.2l0.7,0.9l0.5-0.7l-0.7,1.4v-0.2h-2.3v0.2
			l2.3,0.2l-0.5,0.7c0-0.3-0.1-0.4-0.3-0.2c-0.2,0.2-0.3,0.3-0.1,0.5h-2l-0.7,1.1v-0.7L874,531h3.4c0.1,0.3-0.1,0.5-0.8,0.6
			c-0.7,0.1-0.9,0-0.8-0.3l-1.1,1.4l-1.4-0.9h-0.2c-2.9,2.4-4.5,4.2-5,5.4l0.2,0.7l-2,2c-0.2,0.2-0.5,0.2-1,0
			c-0.5-0.1-0.8-0.4-0.8-0.7l-0.9,1.1c-0.2,0.2,0.1,0.2,0.7,0.2c0.6,0,0.7,0.2,0.5,0.5l-4.1,2l-1.1,1.4c-0.3,0.3-0.2,0.4,0.2,0.2
			c0.5-0.1,0.6-0.1,0.5,0l1.6-1.1l0.7,0.9v0.9l-2.5,1.8l-1.4,0.2l-0.2-1.1l1.8-0.9l-0.2-0.2l-3.8,2.3l-1.1,0.5l0.5,0.9
			c-2.1,1.1-3.4,1.9-3.8,2.5l0.5,1.4l-0.2,0.2l-0.2,0.7l0.2-0.2h0.2v0.2c-0.2,0.2-0.3,0.2-0.6,0.2c-0.2,0-0.4,0.1-0.6,0.2l0.2,0.9
			l-0.7,0.5h1.1v0.5h-1.1c-0.8,0-1.6,0.2-2.5,0.5c0.8,0.8,0.7,1.4-0.2,1.8l0.7,0.5l-4.7,3.8l-0.5-0.2l-1.1,0.2v0.9l-1.4,0.9
			l-1.4-0.2l-0.7,1.1v0.2h0.7v0.2c-0.9,0-1.8,0.3-2.6,1c-0.8,0.7-1.2,1.5-1.2,2.4l-0.7-0.7l-1.1,1.1l0.2,2.3c-0.2,0.2-0.3,0.2-0.5,0
			c-0.2-0.1-0.2-0.4-0.2-0.7l-3.2,2v2l-2.5,1.4h-0.7c0,0.1,0.1,0.3,0.3,0.3c0.2,0.1,0.3,0.2,0.1,0.3c-1.4,0.5-2.7,1.2-4.1,2.3
			l-0.9-0.2c-0.9,2.1-2.7,3.8-5.4,5l-0.5,0.9l0.7,1.6h0.2v0.7l-2.7,0.2v-0.5l-1.1,0.9v0.5l1.6-0.2v0.7l-2.3,1.1v-0.5l-2.3,1.6
			c0.3,0,0.6,0.1,1,0.5c0.4,0.3,0.3,0.6-0.1,0.9h-1.8c0.6,0.6,0.8,1,0.5,1.4l-1.8-0.7l0.9-0.7h-0.2l-3.2,2h-1.4
			c-1.4,1.7-3.2,2.5-5.6,2.5c-1.4,1.4-3.2,2.7-5.4,4.1c0.1,0.1,0.2,0.5,0.2,0.9l-1.8,1.4h-0.9l-24.3,9.2l-0.7-0.2v0.2
			c-0.2,0-0.5-0.1-0.9-0.2c-0.5-0.2-0.7-0.2-0.7,0c0,0.1,0.2,0.3,0.6,0.5c0.4,0.1,0.4,0.4,0.1,0.7h-1.4l-0.5,0.5l-1.1-0.5l-1.1,0.9
			l-2.9-0.2l-0.2,0.2h-1.4l-0.9,1.6l-5,0.7c-0.2,0-0.3,0-0.3-0.1c-0.1-0.1,0-0.2,0.1-0.3l0.9-1.1c-0.2,0-0.4-0.2-0.7-0.5
			c-0.3-0.3-0.4-0.5-0.2-0.7l2.3,0.5c1-0.5,2.8-1.3,5.2-2.5c2.4-1.2,4.5-2.4,6.4-3.5c1.9-1.1,3.3-2.3,4.4-3.5l0.5,0.9l0.5-1.8
			l1.4,0.2l1.1-0.9L772,602l1.6-1.1l0.9,0.2l1.1-0.9l-0.5-1.4l2.9-0.9c-0.6,0-0.9-0.3-0.9-0.9l2-1.1h1.1l2.3-2.5l-0.5-0.2l0.7-0.5
			c0.3,0,0.6,0,0.9,0.1c0.3,0.1,0.5,0,0.7-0.3l-0.2-1.4c0.5-0.5,1.4-1.4,2.7-2.8c1.4-1.4,2.5-2.4,3.4-2.8l-0.5-0.9h1.6l0.5-0.9
			l-0.2-0.2l2-1.1l-0.2-0.5c0.6-0.6,1.7-1.7,3.3-3.2c1.6-1.5,3.1-2.7,4.6-3.6h-0.9l0.9-0.9c0.1,0,0.3,0.1,0.5,0.4
			c0.1,0.3,0.3,0.4,0.5,0.2c3.9-4.2,7.1-7.8,9.6-10.7c2.5-2.9,3.7-5.1,3.7-6.6c-0.2-1.2,0.1-1.7,0.7-1.6l2,0.7l3.6-4.1l-0.2-0.7
			l2.3-2.3v-0.9h0.7v0.7c3.3-2.6,5-5,5.2-7.2l-0.9-2.3l0.5-0.2c-0.5-1.5-1-2.8-1.6-3.8l0.2-1.8l-0.2-0.9l0.5-2.9
			c-0.5-0.1-0.4-0.5,0.2-1.1l-0.7-1.6V526l2-2l-2-1.6V522l1.6,0.2v-0.5l-0.5,0.2l-4.1-3.2l-0.9,0.2c-0.9,0.8-2.1,1.8-3.5,3
			c-1.4,1.3-2.7,2.3-3.7,3l-1.1,1.6c-5.1,3.5-8.8,6.6-11,9.5c-0.9,0.2-1.8,1-2.6,2.5c-0.8,1.5-1.7,2.3-2.6,2.3l-0.7,1.4l-0.9-0.2
			l-2.9,2.5l0.5,0.9l-4.1-1.4l-2.3-3.4c0-1.2-0.1-2.3-0.2-3.2c-0.2-0.9-0.3-1.7-0.5-2.3l-1.8-2.9c0.5-3,1.3-4.5,2.5-4.5V526
			c1.8-1.8,2.9-4.7,3.2-8.8l2-2.5c-0.9-2-1.2-3.1-0.9-3.4l1.1-0.2l0.2-1.8l-0.2-0.4v-2.5l0.9-1.4h0.2l1.6,1.8h0.5
			c-0.9-2.1-1.4-4.1-1.4-5.9h0.7l-0.2-1.4c0.9,1.1,2.1,2.1,3.6,3.3c1.5,1.1,2.6,1.9,3.2,2.4c0.5,1.1,1,2.5,1.8,4.4
			c0.8,1.9,1.5,3.5,2.3,4.8h0.5l1.6-0.9V513l0.7,0.9l2.7-1.4l0.2-0.9c0.1,0,0.4,0,0.8,0.1c0.4,0.1,0.6-0.1,0.6-0.6v-0.5l-1.1-0.4
			l0.2-0.2h1.8l0.2,0.2V510l-0.5-0.9l2.3-0.9l0.5,0.7c0.9-0.8,2.3-1.7,4.1-2.8c1.8-1.1,3.3-2.3,4.5-3.5l0.7,0.2c0.1,0,0.3,0,0.5-0.1
			c0.1-0.1,0.4,0.2,0.9,0.8l0.9-1.4v-0.5l-1.1,0.5v-0.7c1,0,1.8-0.4,2.1-1.4c0.4-0.9,0.6-2.2,0.6-3.8c0-1.8-0.3-3.8-0.9-6.1
			c-0.6-2.3-1-3.8-1.1-4.7l-0.9-1.1c-2.3,0.9-5.6,2.1-10.1,3.6c-7.2,2.4-13,4.6-17.3,6.6c-4.4,2-8.3,4.7-11.7,8
			c-1.4,1.7-2.9,2.5-4.5,2.5c-2.9,0-5-0.1-6.3-0.4c-0.8,0.2-1.7,0.3-2.8,0.6c-1.1,0.2-2.1,0.3-2.8,0.3c-1.2,0-2.3-0.6-3.3-1.9
			c-1-1.3-1.9-2.6-2.7-4.1c-0.8-1.4-1.4-2.4-1.7-2.8c2.1-2.7,3.4-5.9,3.8-9.7l3.6-2l3.2-0.2l1.1-0.4l0.7,0.2
			c1.2-0.6,3.2-1.9,5.9-4.1c0.3-0.3,1.6-1.2,3.9-2.8c2.3-1.6,4.7-2.8,7.1-3.7v-0.5l-1.6-0.2v-1.1l3.2-0.7l0.2-1.4
			c-0.5-0.6-0.8-1.3-1-2.1c-0.2-0.8-0.3-1.5-0.1-2.1l-0.5-0.5l0.5-1.8l-0.2-2.9l1.4-2.5l-0.2-1.8l1.6-5l-0.5-3.6l0.2-0.5
			c0-0.1-0.3-0.5-0.8-1.1c-0.5-0.6-0.4-1.4,0.3-2.3l-2.3-2.7l-0.5-2.5l0.9-1.4l-0.2-2l1.8-2.7h0.5c0-0.6-0.3-1-0.9-1.1V430l2-0.7
			c1.5,1.1,3.5,1.6,6.1,1.6l4.3,5.4l5.4,6.8l-0.2,2.5l0.2,1.1l-0.5,0.7l0.9,1.6h0.2c0.5-0.8,1.8-2.1,4.1-4.1v1.1l4.5-4.1h0.5v1.4
			c-2,2.4-3.6,5.3-5,8.6c-1.4,3.3-2.3,5.5-2.7,6.5c0.3,0,0.3,0.3,0,0.8c-0.3,0.5-0.3,0.9,0,1.2l-0.2,1.4h0.5
			c-0.3,0.6-0.7,1.3-1.1,2.1c-0.5,0.8-0.8,1.4-1.1,1.7l-0.2,0.5c0,0.6,0.3,1.5,0.9,2.7l-0.5,1.6l0.5,0.9c5.4-1.5,11.2-3.8,17.4-7
			l0.5-0.5v-2.7h0.4v-2c-2.7-0.6-4.4-0.9-5.2-0.9l-8.3,4.7h-1.4v-0.7l1.6-1.1c-0.2-0.1-0.5-0.1-1.1,0.2c-0.6,0.3-0.8,0.4-0.7,0.2
			c4.8-3,8.3-5.7,10.6-8.1l-1.4-1.4c-0.2,0.2-0.6,0.2-1.4,0.2l-1.1-0.7l-0.7,0.4l-1.8-0.7c-0.3-0.3-0.2-0.5,0.3-0.6
			c0.5-0.1,0.9,0.1,1,0.6l1.1-0.9h0.4v0.9l1.4-0.2l1.1,0.2h0.2c0.3,0-0.2-0.3-1.4-0.9c-1.2-0.6-2-1-2.5-1.4V449l3.8-0.5l-2.7-2V446
			l1.8,0.2l0.2-0.4l2,0.7h1.4v-5c-0.2-0.1-0.2-2-0.2-5.4l-0.5-0.9l0.5-1.1c-0.3-2.7-0.5-4.5-0.5-5.4l-0.5-0.7h0.5
			c-0.8-2.3-1.1-5.1-1.1-8.6c-0.3-4.7-0.9-8-1.8-10.1l0.2-1.1c-0.2-0.1-0.3-0.5-0.3-1c-0.1-0.5-0.3-0.9-0.6-1V405
			c0.5-0.9,1.4-2.3,2.9-4.1l-0.5-1.8l1.1-2.5l2.7-1.6l-0.5-2.9c1.2-0.5,2.5-0.9,3.9-1.5c1.4-0.5,2.9-1.1,4.4-1.7l1.8-1.4l-0.7-2
			l1.8-0.2l1.4,0.2l0.5-0.2c4.7-0.3,9,0.5,13.1,2.5l1.1,1.6c-0.2,0.8-0.3,1.7-0.5,2.7c-0.2,1.1-0.2,2.2-0.2,3.4
			c0,1.1,0.1,1.9,0.2,2.5l-0.2,1.6c0,0.8,0.1,1.5,0.2,2.1c0.1,0.7,0.2,1.4,0.2,2.1l1.1,0.5v0.7c-0.8,0.5-1.5,2-2.4,4.6
			c-0.8,2.6-1.2,4.5-1.2,5.7l2,2.5l6.3-6.8c1-0.1,2.6-0.6,4.7-1.4c2.1-0.8,3.8-1.1,5.2-1.1l0.5,0.2l2.5-0.7c1,0.2,2.8,0.5,5.2,1.1
			l0.9-0.5c2.3,0.5,3.7,1.4,4.4,2.7c0.7,1.4,1.2,3.4,1.7,6.1c0.3,2.3,0.7,3.9,1.1,5c-2.9,3.9-4.9,6.2-6.1,7c-1.7,1.2-3.3,2.7-5,4.5
			l-1.4-0.2c-1.4,0.8-3.1,1.5-5.2,2.3c-2.1,0.8-3.6,1.4-4.5,1.8c-4.5,1.4-8,2.7-10.4,4.1h-0.7l-1.8,2l0.5,3.4l-0.7,0.5l0.2,1.1
			l-0.7,0.9l-0.2,4.5l0.5,0.9h0.2c2.7,0,6.9-1,12.6-3.2c5.4-2.1,9.5-3.2,12.4-3.2c0.7-0.8,1.8-1.3,3.2-1.7c1.4-0.4,2.4-0.7,3.2-1
			V446l3.4-1.4l0.5,0.2l2.5-0.7l0.7,0.5c2.9-0.6,5.2-1.1,7-1.6l1.8,0.7c1.5-0.3,2.5-0.5,2.9-0.5c1.5,0,2.7,0.3,3.7,0.9
			c1,0.6,2.1,1.6,3.5,2.9c0.3,0.3,1,1,2.3,2.1c1.2,1.1,2.8,1.9,4.7,2.4c0,1.8,1.1,3.2,3.4,4.1C923.5,457.1,923.8,457.8,923.8,457.8z
			 M760.9,613.2l-0.5,0.2l-0.5-0.2v0.2l0.7,0.2h0.2V613.2z M800.1,476.7l-0.9-1.8c-1.2,0-3.5,0.8-6.8,2.5c-1.7,0.9-3.1,1.6-4.3,2
			l-0.9-0.7l-1.1,0.9h1.1v0.9c-0.9,0.5-2.1,1.3-3.7,2.6c-1.6,1.3-2.8,2.1-3.7,2.4v0.2c1.7,0.2,4.6-0.8,8.8-2.8c4.2-2,8-3.9,11.3-5.7
			L800.1,476.7z M788.6,585.3l-0.5,0.9h-0.9c0-0.6,0.3-0.9,0.9-0.9H788.6z M811.4,512.5L811,513h-0.5l0.7-0.9L811.4,512.5z
			 M819.1,588h0.2v0.7h-0.7L819.1,588z M823.6,583.7v0.5l-0.5,0.7h-0.2C822.9,584.4,823.1,584,823.6,583.7z M828.5,459.6l-0.5,0.7
			h-0.5l0.5-1.4h0.2L828.5,459.6z M830.3,513.9h1.1l0.5-0.7V513h-1.1L830.3,513.9z M832.1,514.1l-1.8,1.1h0.5l1.1-0.9L832.1,514.1z
			 M853.1,550.1h1.1l-0.5,0.9L853.1,550.1z M857.6,548.3l0.4,0.5l-0.7,0.7h-0.9v-0.9L857.6,548.3z M872.5,534.4h0.9v0.7h-1.6
			L872.5,534.4z M873.6,532.8l0.5,1.4h-0.2l-0.9-0.9L873.6,532.8z"/>
	</g>
</g>
<g id="Layer_2">
</g>
</svg>
